<svg width="20" height="21" viewBox="0 0 20 21" fill="none" xmlns="http://www.w3.org/2000/svg">
<path fill-rule="evenodd" clip-rule="evenodd" d="M7.53033 0.96967C7.82322 1.26256 7.82322 1.73744 7.53033 2.03033L2.81066 6.75H13C16.7279 6.75 19.75 9.77208 19.75 13.5C19.75 17.2279 16.7279 20.25 13 20.25H10C9.58579 20.25 9.25 19.9142 9.25 19.5C9.25 19.0858 9.58579 18.75 10 18.75H13C15.8995 18.75 18.25 16.3995 18.25 13.5C18.25 10.6005 15.8995 8.25 13 8.25H2.81066L7.53033 12.9697C7.82322 13.2626 7.82322 13.7374 7.53033 14.0303C7.23744 14.3232 6.76256 14.3232 6.46967 14.0303L0.46967 8.03033C0.176777 7.73744 0.176777 7.26256 0.46967 6.96967L6.46967 0.96967C6.76256 0.676777 7.23744 0.676777 7.53033 0.96967Z" fill="white"/>
</svg>
