<svg width="25" height="24" viewBox="0 0 25 24" fill="none" xmlns="http://www.w3.org/2000/svg">
<path d="M20.891 3.8205L12.5938 7.758C12.3442 7.59035 12.0506 7.50056 11.75 7.5C11.3522 7.5 10.9706 7.65803 10.6893 7.93934C10.408 8.22064 10.25 8.60217 10.25 9C10.25 9.39782 10.408 9.77935 10.6893 10.0607C10.9706 10.342 11.3522 10.5 11.75 10.5C12.5375 10.5 13.1915 9.89025 13.25 9.117L17.7972 6.96075C19.1585 7.53525 20 8.28525 20 9C20 10.4152 16.7922 12 12.5 12C8.20775 12 5 10.4152 5 9C5 7.58475 8.20775 6 12.5 6C12.629 6 12.746 5.997 12.875 6L15.5233 4.758C14.5245 4.58785 13.5132 4.50155 12.5 4.5C7.37 4.5 3.5 6.4335 3.5 9V16.5C3.5 17.241 3.83375 17.9212 4.34375 18.4687C4.85375 19.0162 5.5475 19.4587 6.35975 19.8285C7.982 20.5665 10.13 21 12.5 21C14.87 21 17.0173 20.5665 18.641 19.8277C19.4525 19.4587 20.1462 19.0162 20.6562 18.4687C21.1663 17.9212 21.5 17.241 21.5 16.5V9C21.5 7.89225 20.7673 6.9075 19.5312 6.14025L21.5233 5.18025L20.891 3.8205ZM5 11.5545C5.762 12.129 6.78425 12.6007 8 12.9375V18.867C7.625 18.75 7.28225 18.612 6.96875 18.4687C6.28925 18.1582 5.77025 17.7862 5.4455 17.4375C5.12 17.0887 5 16.7962 5 16.5V11.5545ZM20 11.5545V16.5C20 16.7962 19.88 17.0887 19.5545 17.4375C19.2297 17.7862 18.7107 18.1575 18.0312 18.4687C17.7177 18.612 17.375 18.75 17 18.867V12.9375C18.2157 12.6 19.238 12.129 20 11.5545ZM9.5 13.2652C10.4919 13.4257 11.4953 13.5042 12.5 13.5C13.5047 13.5042 14.5081 13.4257 15.5 13.2652V19.2187C14.5775 19.3912 13.5665 19.5 12.5 19.5C11.4335 19.5 10.4225 19.3912 9.5 19.2187V13.2652Z" fill="white"/>
</svg>
