<svg width="24" height="24" viewBox="0 0 24 24" fill="none" xmlns="http://www.w3.org/2000/svg">
<path fill-rule="evenodd" clip-rule="evenodd" d="M9.40704 2.16461C9.51922 1.6037 10.0117 1.19995 10.5837 1.19995H13.4162C13.9882 1.19995 14.4807 1.6037 14.5929 2.16461L14.9895 4.1475C15.8347 4.46945 16.6144 4.92393 17.3035 5.48555L19.2214 4.83673C19.7633 4.65343 20.3592 4.87806 20.6452 5.37345L22.0614 7.82644C22.3474 8.32182 22.244 8.95021 21.8143 9.32782L20.2943 10.6637C20.3638 11.0989 20.4 11.5452 20.4 12C20.4 12.4547 20.3638 12.901 20.2943 13.3362L21.8143 14.6721C22.244 15.0497 22.3474 15.6781 22.0614 16.1734L20.6452 18.6264C20.3592 19.1218 19.7633 19.3465 19.2214 19.1632L17.3035 18.5143C16.6145 19.076 15.8347 19.5304 14.9895 19.8524L14.5929 21.8353C14.4807 22.3962 13.9882 22.7999 13.4162 22.7999H10.5837C10.0117 22.7999 9.51922 22.3962 9.40704 21.8353L9.01046 19.8524C8.16528 19.5304 7.38549 19.076 6.69648 18.5144L4.77854 19.1632C4.23668 19.3465 3.64077 19.1218 3.35477 18.6265L1.93853 16.1735C1.65252 15.6781 1.75593 15.0497 2.1856 14.6721L3.70567 13.3362C3.63611 12.901 3.59997 12.4547 3.59997 12C3.59997 11.5452 3.63611 11.0989 3.70567 10.6637L2.1856 9.32784C1.75593 8.95023 1.65252 8.32184 1.93853 7.82646L3.35477 5.37346C3.64077 4.87808 4.23668 4.65344 4.77854 4.83675L6.69647 5.48556C7.38548 4.92394 8.16528 4.46946 9.01046 4.1475L9.40704 2.16461ZM12 15.6C13.9882 15.6 15.6 13.9882 15.6 12C15.6 10.0117 13.9882 8.39995 12 8.39995C10.0117 8.39995 8.39997 10.0117 8.39997 12C8.39997 13.9882 10.0117 15.6 12 15.6Z" fill="white"/>
</svg>
