<svg width="22" height="20" viewBox="0 0 22 20" fill="none" xmlns="http://www.w3.org/2000/svg">
<path d="M6.5 6.25H15.5M6.5 9.25H11M1.25 10.7593C1.25 12.3604 2.37341 13.754 3.95746 13.987C5.08596 14.1529 6.22724 14.2796 7.37985 14.3655C7.73004 14.3916 8.05017 14.5753 8.24496 14.8674L11 19L13.755 14.8675C13.9498 14.5753 14.2699 14.3917 14.6201 14.3656C15.7727 14.2796 16.914 14.153 18.0425 13.9871C19.6266 13.7542 20.75 12.3606 20.75 10.7595V4.74056C20.75 3.13946 19.6266 1.74583 18.0425 1.51293C15.744 1.17501 13.3926 1 11.0003 1C8.60776 1 6.25612 1.17504 3.95747 1.51302C2.37342 1.74593 1.25 3.13956 1.25 4.74064V10.7593Z" stroke="white" stroke-width="1.5" stroke-linecap="round" stroke-linejoin="round"/>
</svg>
