<svg width="40" height="32" viewBox="0 0 40 32" fill="none" xmlns="http://www.w3.org/2000/svg">
<path d="M0 3.59217V8.00523L40 8.21356V6.35258C40 4.67648 38.6412 3.31773 36.9651 3.31773H15.2942C14.3751 3.31773 13.4967 2.93879 12.866 2.27023L12.1484 1.50959C11.575 0.901806 10.7764 0.557312 9.94084 0.557312H3.03486C1.35875 0.557312 0 1.91606 0 3.59217Z" fill="url(#paint0_linear_279_1213)"/>
<path d="M0 8.76376C0 8.15188 0 7.84594 0.119081 7.61223C0.223827 7.40665 0.390966 7.23951 0.596542 7.13477C0.830251 7.01569 1.13619 7.01569 1.74808 7.01569H38.2519C38.8638 7.01569 39.1698 7.01569 39.4035 7.13477C39.609 7.23951 39.7762 7.40665 39.8809 7.61223C40 7.84594 40 8.15188 40 8.76376V26.587C40 28.2867 40 29.1365 39.6692 29.7857C39.3783 30.3568 38.914 30.821 38.3429 31.112C37.6937 31.4428 36.8439 31.4428 35.1442 31.4428H4.85577C3.15609 31.4428 2.30625 31.4428 1.65706 31.112C1.08602 30.821 0.621741 30.3568 0.33078 29.7857C0 29.1365 0 28.2867 0 26.587V8.76376Z" fill="url(#paint1_linear_279_1213)"/>
<path d="M1.61462 6.77132C1.61462 6.10087 2.15812 5.55737 2.82857 5.55737H37.1194C37.7899 5.55737 38.3334 6.10087 38.3334 6.77132V7.01571H1.61462V6.77132Z" fill="white"/>
<defs>
<linearGradient id="paint0_linear_279_1213" x1="20" y1="0.557312" x2="20" y2="8.21356" gradientUnits="userSpaceOnUse">
<stop stop-color="#13B0F8"/>
<stop offset="1" stop-color="#0283EC"/>
</linearGradient>
<linearGradient id="paint1_linear_279_1213" x1="20" y1="7.01569" x2="20" y2="31.4428" gradientUnits="userSpaceOnUse">
<stop stop-color="#2ABAFB"/>
<stop offset="1" stop-color="#2676F6"/>
</linearGradient>
</defs>
</svg>
