<svg width="32" height="32" viewBox="0 0 32 32" fill="none" xmlns="http://www.w3.org/2000/svg">
<path d="M4.99997 13.0347C5.14936 13.0119 5.30263 13 5.459 13H26.5409C26.6973 13 26.8506 13.0119 27 13.0347M4.99997 13.0347C3.40529 13.2784 2.25308 14.7718 2.48915 16.4243L3.63201 24.4243C3.84314 25.9022 5.10891 27 6.60186 27H25.3981C26.891 27 28.1568 25.9022 28.3679 24.4243L29.5108 16.4243C29.7469 14.7718 28.5946 13.2784 27 13.0347M4.99997 13.0347V8C4.99997 6.34315 6.34312 5 7.99997 5H13.1715C13.702 5 14.2107 5.21071 14.5858 5.58579L17.4142 8.41421C17.7893 8.78929 18.298 9 18.8284 9H24C25.6568 9 27 10.3431 27 12V13.0347" stroke="white" stroke-width="2" stroke-linecap="round" stroke-linejoin="round"/>
</svg>
