<svg width="24" height="24" viewBox="0 0 24 24" fill="none" xmlns="http://www.w3.org/2000/svg">
<path d="M22 5.125C22 5.29427 21.9382 5.44076 21.8145 5.56445L19.002 8.37695C18.8783 8.50065 18.7318 8.5625 18.5625 8.5625C18.3737 8.5625 18.2174 8.49089 18.0938 8.34766L13.1914 13.25H13.875C14.0443 13.25 14.1908 13.3118 14.3145 13.4355C14.4382 13.5592 14.5 13.7057 14.5 13.875V15.125C14.5 15.3854 14.4512 15.6296 14.3535 15.8574C14.2559 16.0853 14.1224 16.2839 13.9531 16.4531C13.7839 16.6224 13.5853 16.7559 13.3574 16.8535C13.1296 16.9512 12.8854 17 12.625 17C12.4557 17 12.3092 17.0618 12.1855 17.1855C12.0618 17.3092 12 17.4557 12 17.625C12 18.2305 11.8861 18.7969 11.6582 19.3242C11.4303 19.8516 11.1178 20.3171 10.7207 20.7207C10.3236 21.1243 9.86133 21.4368 9.33398 21.6582C8.80664 21.8796 8.23698 21.9935 7.625 22C6.85026 22 6.12109 21.8535 5.4375 21.5605C4.75391 21.2676 4.1582 20.8639 3.65039 20.3496C3.14258 19.8353 2.74219 19.2396 2.44922 18.5625C2.15625 17.8854 2.00651 17.1562 2 16.375C2 15.7695 2.11393 15.2031 2.3418 14.6758C2.56966 14.1484 2.88216 13.6829 3.2793 13.2793C3.67643 12.8757 4.13867 12.5632 4.66602 12.3418C5.19336 12.1204 5.76302 12.0065 6.375 12C6.54427 12 6.69076 11.9382 6.81445 11.8145C6.93815 11.6908 7 11.5443 7 11.375C7 11.0299 7.0651 10.7077 7.19531 10.4082C7.32552 10.1087 7.50456 9.8418 7.73242 9.60742C7.96029 9.37305 8.22396 9.19401 8.52344 9.07031C8.82292 8.94661 9.14844 8.88151 9.5 8.875C9.92969 8.875 10.3203 8.97266 10.6719 9.16797C11.0234 9.36328 11.3229 9.63672 11.5703 9.98828L15.6523 5.90625C15.5091 5.78255 15.4375 5.6263 15.4375 5.4375C15.4375 5.26823 15.4993 5.12174 15.623 4.99805L18.4355 2.18555C18.5592 2.06185 18.7057 2 18.875 2C19.0443 2 19.1908 2.06185 19.3145 2.18555L21.8145 4.68555C21.9382 4.80924 22 4.95573 22 5.125ZM13.25 14.5H11.6875C11.5182 14.5 11.3717 14.4382 11.248 14.3145L9.68555 12.752C9.56185 12.6283 9.5 12.4818 9.5 12.3125C9.5 12.1432 9.56185 11.9967 9.68555 11.873L10.6523 10.9062C10.5612 10.6719 10.4115 10.4831 10.2031 10.3398C9.99479 10.1966 9.76042 10.125 9.5 10.125C9.32422 10.125 9.16146 10.1576 9.01172 10.2227C8.86198 10.2878 8.73177 10.3757 8.62109 10.4863C8.51042 10.597 8.41927 10.7305 8.34766 10.8867C8.27604 11.043 8.24349 11.2057 8.25 11.375C8.25 11.6354 8.20117 11.8796 8.10352 12.1074C8.00586 12.3353 7.8724 12.5339 7.70312 12.7031C7.53385 12.8724 7.33529 13.0059 7.10742 13.1035C6.87956 13.2012 6.63542 13.25 6.375 13.25C5.94531 13.25 5.54167 13.3314 5.16406 13.4941C4.78646 13.6569 4.45443 13.8815 4.16797 14.168C3.88151 14.4544 3.6569 14.7865 3.49414 15.1641C3.33138 15.5417 3.25 15.9453 3.25 16.375C3.25 16.9805 3.36393 17.5469 3.5918 18.0742C3.81966 18.6016 4.13216 19.0638 4.5293 19.4609C4.92643 19.8581 5.38867 20.1706 5.91602 20.3984C6.44336 20.6263 7.01302 20.7435 7.625 20.75C8.05469 20.75 8.45833 20.6686 8.83594 20.5059C9.21354 20.3431 9.54232 20.1217 9.82227 19.8418C10.1022 19.5618 10.3268 19.2298 10.4961 18.8457C10.6654 18.4616 10.75 18.0547 10.75 17.625C10.75 17.3646 10.7988 17.1204 10.8965 16.8926C10.9941 16.6647 11.1276 16.4661 11.2969 16.2969C11.4661 16.1276 11.6647 15.9941 11.8926 15.8965C12.1204 15.7988 12.3646 15.75 12.625 15.75C12.7943 15.75 12.9408 15.6882 13.0645 15.5645C13.1882 15.4408 13.25 15.2943 13.25 15.125V14.5ZM11.6875 12.9961L17.2148 7.46875L16.5312 6.78516L11.0039 12.3125L11.6875 12.9961ZM18.5625 7.05859L20.4961 5.125L18.875 3.50391L16.9414 5.4375L18.5625 7.05859ZM5.4668 16.3457L6.3457 15.4668L8.5332 17.6543L7.6543 18.5332L5.4668 16.3457ZM7.3418 14.4707L8.2207 13.5918L10.4082 15.7793L9.5293 16.6582L7.3418 14.4707Z" fill="white"/>
</svg>
