<svg width="40" height="27" viewBox="0 0 40 27" fill="none" xmlns="http://www.w3.org/2000/svg">
<g clip-path="url(#clip0_279_7204)">
<path d="M22.9322 0.875614C21.0224 0.879472 19.1481 1.39157 17.5017 2.35931C15.8553 3.32706 14.4962 4.71558 13.5639 6.38228C12.7614 5.99149 11.8807 5.7878 10.9881 5.78655C9.58908 5.79023 8.23687 6.29073 7.17262 7.1988C6.10837 8.10686 5.40128 9.36344 5.17746 10.7444C3.69968 11.3632 2.43773 12.4049 1.55018 13.7387C0.662625 15.0725 0.189053 16.6388 0.188965 18.2409C0.19105 20.3958 1.0488 22.4616 2.57364 23.9842C4.09848 25.5069 6.16558 26.3616 8.32047 26.3606C8.66148 26.3575 9.00196 26.333 9.33989 26.2871H31.9339C32.0525 26.2957 32.1714 26.3014 32.2903 26.3043C32.4036 26.3012 32.5169 26.2954 32.6299 26.2871H33.171V26.2469C35.0106 26.0293 36.7069 25.1412 37.9382 23.7508C39.1695 22.3604 39.8504 20.5644 39.8517 18.7033V18.6887C39.8474 16.9211 39.2302 15.2103 38.1062 13.8506C36.9821 12.4909 35.4216 11.5673 33.6931 11.2386C33.5905 8.45406 32.4115 5.81789 30.4044 3.88501C28.3973 1.95214 25.7186 0.873312 22.9322 0.875614Z" fill="url(#paint0_linear_279_7204)"/>
</g>
<defs>
<linearGradient id="paint0_linear_279_7204" x1="39.9721" y1="18.7239" x2="0.174315" y2="18.1749" gradientUnits="userSpaceOnUse">
<stop stop-color="#3E82F4"/>
<stop offset="1" stop-color="#93DCF7"/>
</linearGradient>
<clipPath id="clip0_279_7204">
<rect width="40" height="26" fill="white" transform="translate(0 0.5)"/>
</clipPath>
</defs>
</svg>
