<svg width="16" height="21" viewBox="0 0 16 21" fill="none" xmlns="http://www.w3.org/2000/svg">
<path d="M1 9C1 10.8565 1.7375 12.637 3.05025 13.9497C4.36301 15.2625 6.14348 16 8 16M8 16C9.85652 16 11.637 15.2625 12.9497 13.9497C14.2625 12.637 15 10.8565 15 9M8 16V20M4 20H12M5 4C5 3.20435 5.31607 2.44129 5.87868 1.87868C6.44129 1.31607 7.20435 1 8 1C8.79565 1 9.55871 1.31607 10.1213 1.87868C10.6839 2.44129 11 3.20435 11 4V9C11 9.79565 10.6839 10.5587 10.1213 11.1213C9.55871 11.6839 8.79565 12 8 12C7.20435 12 6.44129 11.6839 5.87868 11.1213C5.31607 10.5587 5 9.79565 5 9V4Z" stroke="white" stroke-width="1.8" stroke-linecap="round" stroke-linejoin="round"/>
</svg>
