<svg width="24" height="24" viewBox="0 0 24 24" fill="none" xmlns="http://www.w3.org/2000/svg">
<path fill-rule="evenodd" clip-rule="evenodd" d="M21.2652 1.91846C21.4769 2.08932 21.6 2.3468 21.6 2.61888V16.1665C21.6 17.4378 20.7132 18.5368 19.4706 18.8055L17.0218 19.335C15.3648 19.6932 13.8 18.4307 13.8 16.7354C13.8 15.4835 14.673 14.4011 15.8964 14.136L19.0906 13.4439C19.5046 13.3542 19.8 12.9879 19.8 12.5643V7.33427L10.2 9.40995V18.6313C10.2 19.9026 9.31319 21.0017 8.07062 21.2704L5.62079 21.8001C3.96431 22.1582 2.40002 20.896 2.40002 19.2012C2.40002 17.9487 3.27427 16.8659 4.49875 16.6021L7.68963 15.9144C8.1041 15.8251 8.40002 15.4586 8.40002 15.0346V5.08374C8.40002 4.65998 8.69563 4.29363 9.10983 4.20407L20.5098 1.73921C20.7758 1.68171 21.0534 1.7476 21.2652 1.91846Z" fill="#32C5F4"/>
</svg>
