<svg width="18" height="22" viewBox="0 0 18 22" fill="none" xmlns="http://www.w3.org/2000/svg">
<path d="M6 8L16.5 5M16.5 11.5528V15.3028C16.5 16.3074 15.834 17.1903 14.8681 17.4663L13.5481 17.8434C12.3964 18.1724 11.25 17.3077 11.25 16.1099C11.25 15.305 11.7836 14.5975 12.5576 14.3764L14.8681 13.7163C15.834 13.4403 16.5 12.5574 16.5 11.5528ZM16.5 11.5528V1.25L6 4.25V14.5528M6 14.5528V18.3028C6 19.3074 5.33405 20.1903 4.36812 20.4663L3.04814 20.8434C1.89645 21.1724 0.75 20.3077 0.75 19.1099C0.75 18.305 1.2836 17.5975 2.05757 17.3764L4.36812 16.7163C5.33405 16.4403 6 15.5574 6 14.5528Z" stroke="white" stroke-width="1.5" stroke-linecap="round" stroke-linejoin="round"/>
</svg>
