<svg width="60" height="60" viewBox="0 0 60 60" fill="none" xmlns="http://www.w3.org/2000/svg">
<rect width="60" height="60" rx="30" fill="white"/>
<path fill-rule="evenodd" clip-rule="evenodd" d="M23 21C23 20.4477 23.4477 20 24 20H26C26.5523 20 27 20.4477 27 21V39C27 39.5523 26.5523 40 26 40H24C23.7348 40 23.4804 39.8946 23.2929 39.7071C23.1054 39.5196 23 39.2652 23 39L23 21ZM33 21C33 20.4477 33.4477 20 34 20H36C36.2652 20 36.5196 20.1054 36.7071 20.2929C36.8946 20.4804 37 20.7348 37 21L37 39C37 39.5523 36.5523 40 36 40H34C33.4477 40 33 39.5523 33 39V21Z" fill="black"/>
</svg>
