<svg width="25" height="24" viewBox="0 0 25 24" fill="none" xmlns="http://www.w3.org/2000/svg">
<path d="M9.5 19V13M8.5 5V13H10.5V5M15.5 19V13M14.5 5V13H16.5V5M3.5 7C3.5 6.46957 3.71071 5.96086 4.08579 5.58579C4.46086 5.21071 4.96957 5 5.5 5H19.5C20.0304 5 20.5391 5.21071 20.9142 5.58579C21.2893 5.96086 21.5 6.46957 21.5 7V17C21.5 17.5304 21.2893 18.0391 20.9142 18.4142C20.5391 18.7893 20.0304 19 19.5 19H5.5C4.96957 19 4.46086 18.7893 4.08579 18.4142C3.71071 18.0391 3.5 17.5304 3.5 17V7Z" stroke="white" stroke-width="2" stroke-linecap="round" stroke-linejoin="round"/>
</svg>
