<svg width="162" height="150" viewBox="0 0 162 150" fill="none" xmlns="http://www.w3.org/2000/svg">
<path d="M75.125 150C116.546 150 150.125 116.421 150.125 75C150.125 33.5786 116.546 0 75.125 0C33.7036 0 0.125 33.5786 0.125 75C0.125 116.421 33.7036 150 75.125 150Z" fill="#141414"/>
<g filter="url(#filter0_d_89_56279)">
<path d="M40.9784 34H151.772C152.86 34 153.904 34.5268 154.673 35.4645C155.443 36.4021 155.875 37.6739 155.875 39V64C155.875 65.3261 155.443 66.5979 154.673 67.5355C153.904 68.4732 152.86 69 151.772 69H40.9784C39.8901 69 38.8464 68.4732 38.0769 67.5355C37.3073 66.5979 36.875 65.3261 36.875 64V39C36.875 37.6739 37.3073 36.4021 38.0769 35.4645C38.8464 34.5268 39.8901 34 40.9784 34V34Z" fill="black"/>
</g>
<path d="M105.125 42H79.125C77.4681 42 76.125 43.3431 76.125 45C76.125 46.6569 77.4681 48 79.125 48H105.125C106.782 48 108.125 46.6569 108.125 45C108.125 43.3431 106.782 42 105.125 42Z" fill="#0F3B49"/>
<path d="M123.125 55H79.125C77.4681 55 76.125 56.3431 76.125 58C76.125 59.6569 77.4681 61 79.125 61H123.125C124.782 61 126.125 59.6569 126.125 58C126.125 56.3431 124.782 55 123.125 55Z" fill="#0A2731"/>
<path d="M68.125 51.5C68.125 43.4919 61.6331 37 53.625 37C45.6169 37 39.125 43.4919 39.125 51.5C39.125 59.5081 45.6169 66 53.625 66C61.6331 66 68.125 59.5081 68.125 51.5Z" fill="#32C5F4"/>
<path d="M52.725 56.194C53.9663 56.1939 55.1719 55.7785 56.15 55.014L59.225 58.089L60.214 57.1L57.138 54.024C57.9108 53.0248 58.3224 51.7934 58.3057 50.5303C58.2891 49.2672 57.8451 48.047 57.0462 47.0686C56.2473 46.0901 55.1405 45.4111 53.9063 45.1422C52.672 44.8733 51.3831 45.0303 50.2495 45.5877C49.116 46.1451 48.2046 47.07 47.664 48.2117C47.1234 49.3533 46.9854 50.6444 47.2725 51.8746C47.5596 53.1047 48.2549 54.2013 49.245 54.9857C50.2352 55.7701 51.4618 56.196 52.725 56.194ZM52.725 46.4C53.5556 46.4 54.3677 46.6464 55.0584 47.1079C55.749 47.5694 56.2874 48.2253 56.6053 48.9928C56.9231 49.7602 57.0063 50.6047 56.8443 51.4194C56.6822 52.2341 56.2822 52.9825 55.6948 53.5699C55.1074 54.1573 54.3591 54.5573 53.5443 54.7193C52.7296 54.8814 51.8851 54.7982 51.1177 54.4803C50.3502 54.1624 49.6943 53.6241 49.2328 52.9334C48.7713 52.2427 48.525 51.4307 48.525 50.6C48.525 49.4861 48.9675 48.4178 49.7551 47.6302C50.5428 46.8425 51.6111 46.4 52.725 46.4Z" fill="white"/>
<g filter="url(#filter1_d_89_56279)">
<path d="M151.004 79H26.2457C23.6938 79 21.625 81.2386 21.625 84V109C21.625 111.761 23.6938 114 26.2457 114H151.004C153.556 114 155.625 111.761 155.625 109V84C155.625 81.2386 153.556 79 151.004 79Z" fill="black"/>
</g>
<path d="M90.625 87H64.625C62.9681 87 61.625 88.3431 61.625 90C61.625 91.6569 62.9681 93 64.625 93H90.625C92.2819 93 93.625 91.6569 93.625 90C93.625 88.3431 92.2819 87 90.625 87Z" fill="#0F3B49"/>
<path d="M108.625 100H64.625C62.9681 100 61.625 101.343 61.625 103C61.625 104.657 62.9681 106 64.625 106H108.625C110.282 106 111.625 104.657 111.625 103C111.625 101.343 110.282 100 108.625 100Z" fill="#0A2731"/>
<path d="M53.625 96.5C53.625 88.4919 47.1331 82 39.125 82C31.1169 82 24.625 88.4919 24.625 96.5C24.625 104.508 31.1169 111 39.125 111C47.1331 111 53.625 104.508 53.625 96.5Z" fill="#32C5F4"/>
<path d="M38.225 101.194C39.4663 101.194 40.6719 100.778 41.65 100.014L44.725 103.089L45.714 102.1L42.638 99.024C43.4108 98.0248 43.8224 96.7934 43.8057 95.5303C43.7891 94.2672 43.3451 93.047 42.5462 92.0686C41.7473 91.0901 40.6405 90.4111 39.4063 90.1422C38.172 89.8733 36.8831 90.0303 35.7495 90.5877C34.616 91.1451 33.7046 92.07 33.164 93.2117C32.6234 94.3533 32.4854 95.6444 32.7725 96.8746C33.0596 98.1047 33.7549 99.2013 34.745 99.9857C35.7352 100.77 36.9618 101.196 38.225 101.194ZM38.225 91.4C39.0556 91.4 39.8677 91.6464 40.5584 92.1079C41.249 92.5694 41.7874 93.2253 42.1053 93.9928C42.4231 94.7602 42.5063 95.6047 42.3443 96.4194C42.1822 97.2341 41.7822 97.9825 41.1948 98.5699C40.6074 99.1573 39.8591 99.5573 39.0443 99.7193C38.2296 99.8814 37.3851 99.7982 36.6177 99.4803C35.8502 99.1624 35.1943 98.6241 34.7328 97.9334C34.2713 97.2427 34.025 96.4307 34.025 95.6C34.025 94.4861 34.4675 93.4178 35.2551 92.6302C36.0428 91.8425 37.1111 91.4 38.225 91.4Z" fill="white"/>
<defs>
<filter id="filter0_d_89_56279" x="30.875" y="31" width="131" height="47" filterUnits="userSpaceOnUse" color-interpolation-filters="sRGB">
<feFlood flood-opacity="0" result="BackgroundImageFix"/>
<feColorMatrix in="SourceAlpha" type="matrix" values="0 0 0 0 0 0 0 0 0 0 0 0 0 0 0 0 0 0 127 0" result="hardAlpha"/>
<feOffset dy="3"/>
<feGaussianBlur stdDeviation="3"/>
<feColorMatrix type="matrix" values="0 0 0 0 0 0 0 0 0 0 0 0 0 0 0 0 0 0 0.161 0"/>
<feBlend mode="normal" in2="BackgroundImageFix" result="effect1_dropShadow_89_56279"/>
<feBlend mode="normal" in="SourceGraphic" in2="effect1_dropShadow_89_56279" result="shape"/>
</filter>
<filter id="filter1_d_89_56279" x="15.625" y="76" width="146" height="47" filterUnits="userSpaceOnUse" color-interpolation-filters="sRGB">
<feFlood flood-opacity="0" result="BackgroundImageFix"/>
<feColorMatrix in="SourceAlpha" type="matrix" values="0 0 0 0 0 0 0 0 0 0 0 0 0 0 0 0 0 0 127 0" result="hardAlpha"/>
<feOffset dy="3"/>
<feGaussianBlur stdDeviation="3"/>
<feColorMatrix type="matrix" values="0 0 0 0 0 0 0 0 0 0 0 0 0 0 0 0 0 0 0.161 0"/>
<feBlend mode="normal" in2="BackgroundImageFix" result="effect1_dropShadow_89_56279"/>
<feBlend mode="normal" in="SourceGraphic" in2="effect1_dropShadow_89_56279" result="shape"/>
</filter>
</defs>
</svg>
