<svg width="150" height="150" viewBox="0 0 150 150" fill="none" xmlns="http://www.w3.org/2000/svg">
<mask id="mask0_89_56176" style="mask-type:alpha" maskUnits="userSpaceOnUse" x="0" y="0" width="150" height="150">
<path d="M75 150C116.421 150 150 116.421 150 75C150 33.5786 116.421 0 75 0C33.5786 0 0 33.5786 0 75C0 116.421 33.5786 150 75 150Z" fill="#141414"/>
</mask>
<g mask="url(#mask0_89_56176)">
<path d="M118 43H32C29.2386 43 27 45.2386 27 48V153C27 155.761 29.2386 158 32 158H118C120.761 158 123 155.761 123 153V48C123 45.2386 120.761 43 118 43Z" fill="black"/>
</g>
</svg>
