<svg width="22" height="20" viewBox="0 0 22 20" fill="none" xmlns="http://www.w3.org/2000/svg">
<path d="M5.15288 2.20239C5.20175 2.20082 5.25082 2.20002 5.30008 2.20002H16.7001C16.7493 2.20002 16.7984 2.20082 16.8473 2.20239C16.4773 1.15248 15.4766 0.400024 14.3001 0.400024H7.70008C6.5236 0.400024 5.52287 1.15248 5.15288 2.20239Z" fill="white"/>
<path d="M0.199951 10.3C0.199951 8.80886 1.40878 7.60002 2.89995 7.60002H19.1C20.5911 7.60002 21.8 8.80886 21.8 10.3V16.9C21.8 18.3912 20.5911 19.6 19.1 19.6H2.89995C1.40878 19.6 0.199951 18.3912 0.199951 16.9V10.3Z" fill="white"/>
<path d="M2.90008 5.80002C2.85082 5.80002 2.80175 5.80082 2.75288 5.80239C3.12287 4.75248 4.1236 4.00002 5.30008 4.00002H16.7001C17.8766 4.00002 18.8773 4.75248 19.2473 5.80239C19.1984 5.80082 19.1493 5.80002 19.1001 5.80002H2.90008Z" fill="white"/>
</svg>
