<svg width="36" height="26" viewBox="0 0 36 26" fill="none" xmlns="http://www.w3.org/2000/svg">
<path fill-rule="evenodd" clip-rule="evenodd" d="M32.0855 1.1681C33.6275 1.58325 34.8433 2.79906 35.2585 4.34106C36.0295 7.15819 35.9998 13.0297 35.9998 13.0297C35.9998 13.0297 35.9998 18.8715 35.2585 21.6886C34.8433 23.2306 33.6275 24.4464 32.0855 24.8616C29.2684 25.6029 17.9999 25.6029 17.9999 25.6029C17.9999 25.6029 6.76109 25.6029 3.91432 24.8319C2.37231 24.4168 1.1565 23.201 0.741348 21.6589C0 18.8715 0 13 0 13C0 13 0 7.15819 0.741348 4.34106C1.1565 2.79906 2.40197 1.5536 3.91432 1.13844C6.73144 0.397095 17.9999 0.397095 17.9999 0.397095C17.9999 0.397095 29.2684 0.397095 32.0855 1.1681ZM23.7824 12.7941L14.4118 18.1911V7.39709L23.7824 12.7941Z" fill="#FF0000"/>
</svg>
